<svg width="64" height="64" viewBox="0 0 64 64" xmlns="http://www.w3.org/2000/svg">
  <circle cx="32" cy="32" r="30" stroke="#857367" stroke-width="4" fill="none"/>
  <path fill="#857367" d="M32 16C24.3 16 18 22.3 18 30c0 2.7.8 5.2 2.2 7.4L18 48l10.9-2.9c2.1 1.2 4.5 1.9 7.1 1.9 7.7 0 14-6.3 14-14S39.7 16 32 16zm0 25.5c-2.1 0-4.1-.6-5.8-1.7l-.4-.3-6.5 1.7 1.7-6.3-.4-.6c-1.2-1.9-1.9-4.1-1.9-6.3 0-6.3 5.1-11.5 11.5-11.5S43.5 22.7 43.5 29c0 6.3-5.1 11.5-11.5 11.5zm5.3-8.2c-.3-.2-1.9-.9-2.2-1-0.3-.1-.5-.2-.7.2s-.8 1-1 1.2c-.2.2-.4.3-.7.1-.3-.1-1.4-.5-2.6-1.6-1-0.9-1.7-2-1.9-2.3-.2-.3 0-.5.1-.7.1-.1.3-.4.5-.6.2-.2.2-.3.3-.5.1-.2.1-.4 0-.6-.1-.2-1.1-2.7-1.5-3.7-.4-1-.8-.9-1.1-.9-.3 0-.6 0-.9.1-.3.1-.8.4-1.1.9-.4.5-1.4 1.5-1.4 3.6s1.5 4.1 1.7 4.4c.2.3 2.9 4.9 7 6.9.9.4 1.7.8 2.3 1 .9.3 1.9.3 2.6.2.8-.1 2.6-1 2.9-2 .4-1 .4-1.8.3-2-.1-.2-.4-.3-.8-.5z"/>
</svg>
